# xmcd
#
# Track frame offsets:
#	150
#	22265
#	42362
#	59967
#	76767
#	101692
#	117972
#	136280
#	153690
#	169160
#	189762
#	213092
#
# Disc length: 3098 seconds
#
# Revision: 0
# Processed by: cddbd v1.5.2PL0 Copyright (c) Steve Scherf et al.
# Submitted via: EasyCDDAExtractor 16.0.1.1
#
DISCID=a50c180c
DTITLE=Mary Black - Speaking With The Angel
DYEAR=1999
DGENRE=Country
TTITLE0=Turning Away
TTITLE1=Cut By Wire
TTITLE2=Don't Say Okay
TTITLE3=Bless The Road
TTITLE4=Broken Wings
TTITLE5=Fall At Your Feet
TTITLE6=Message Of Love
TTITLE7=Moments
TTITLE8=Speaking With The Angel
TTITLE9=Big Trip To Portland
TTITLE10=I Live Not Where I Love
TTITLE11=Fields Of Gold
EXTD=
EXTT0=
EXTT1=
EXTT2=
EXTT3=
EXTT4=
EXTT5=
EXTT6=
EXTT7=
EXTT8=
EXTT9=
EXTT10=
EXTT11=
PLAYORDER=
